<svg height="100%" stroke-miterlimit="10" style="fill-rule:nonzero;clip-rule:evenodd;stroke-linecap:round;stroke-linejoin:round;" version="1.1" viewBox="245 120 311.85 311.85" width="100%" xml:space="preserve" xmlns="http://www.w3.org/2000/svg" xmlns:xlink="http://www.w3.org/1999/xlink">
<defs/>
<g id="图层-1">
<path d="M245.518 276.82C245.518 190.705 315.328 120.895 401.443 120.895C487.558 120.895 557.368 190.705 557.368 276.82C557.368 362.935 487.558 432.745 401.443 432.745C315.328 432.745 245.518 362.935 245.518 276.82Z" fill="#ffffff" fill-rule="nonzero" opacity="1" stroke="none"/>
<path d="M343.382 160.882C336.798 160.882 331.452 166.227 331.452 172.811C331.452 174 331.692 175.114 332.016 176.197L331.997 176.197C332.335 177.327 332.781 178.408 333.418 179.37C333.448 179.416 333.483 179.46 333.515 179.506C335.661 182.651 339.267 184.721 343.362 184.721C346.798 184.721 349.866 183.252 352.042 180.926L349.045 176.197L349.064 176.197L354.747 176.197C355.07 175.115 355.292 173.999 355.292 172.811C355.292 166.227 349.965 160.882 343.382 160.882ZM349.064 176.197L352.042 180.926L354.202 184.332C352.644 181.856 353.4 178.592 355.876 177.034C356.733 176.495 357.813 176.227 358.756 176.217L349.064 176.197Z" fill="#63fdff" fill-rule="nonzero" opacity="1" stroke="none"/>
<path d="M451.691 176.197L446.553 184.332C448.111 181.856 447.355 178.592 444.88 177.034C444.022 176.495 442.944 176.229 442.001 176.219C441.952 176.192 442.049 176.242 441.999 176.217L451.691 176.197Z" fill="#63fdff" fill-rule="nonzero" opacity="1" stroke="none"/>
<path d="M457.71 377.443L452.581 369.303C454.136 371.78 453.377 375.044 450.899 376.599C450.042 377.137 448.963 377.402 448.02 377.411C447.971 377.438 448.068 377.388 448.018 377.413L457.71 377.443Z" fill="#63fdff" fill-rule="nonzero" opacity="1" stroke="none"/>
<path d="M393.691 281.117L407.017 281.117L407.017 377.443L393.691 377.443L393.691 281.117Z" fill="#63fdff" fill-rule="nonzero" opacity="1" stroke="none"/>
<path d="M343.362 160.882C349.946 160.882 355.272 166.227 355.272 172.811C355.272 173.999 355.051 175.115 354.727 176.197L451.682 176.197L400.363 257.213L352.042 180.926C349.866 183.252 346.798 184.721 343.362 184.721C339.267 184.721 335.661 182.651 333.515 179.506L391.275 271.575L326.373 374.037C328.526 370.951 332.074 368.919 336.123 368.919C339.937 368.919 343.302 370.743 345.483 373.531L400.363 286.054L457.695 377.443L347.488 377.443C347.812 378.526 348.052 379.66 348.052 380.848C348.052 387.43 342.704 392.758 336.123 392.758L464.604 392.758C471.185 392.758 476.514 387.43 476.514 380.848C476.514 379.661 476.292 378.525 475.969 377.443C475.656 376.397 475.215 375.407 474.645 374.504L409.451 271.575L467.309 179.37C467.313 179.362 467.323 179.357 467.328 179.35C467.957 178.394 468.394 177.319 468.729 176.197C469.053 175.114 469.294 174 469.294 172.811C469.294 166.227 463.948 160.882 457.364 160.882L343.362 160.882Z" fill="#2f2f2f" fill-rule="nonzero" opacity="1" stroke="none"/>
<path d="M336.123 368.919C332.074 368.919 328.526 370.951 326.373 374.037L326.081 374.504C325.511 375.407 325.07 376.397 324.758 377.443C324.434 378.525 324.213 379.661 324.213 380.848C324.213 387.43 329.541 392.758 336.123 392.758C342.704 392.758 348.052 387.43 348.052 380.848C348.052 379.66 347.812 378.526 347.488 377.443L343.031 377.443L352.703 377.404C351.761 377.395 350.681 377.144 349.823 376.606C347.346 375.051 346.594 371.786 348.15 369.308L345.483 373.531C343.302 370.743 339.937 368.919 336.123 368.919Z" fill="#63fdff" fill-rule="nonzero" opacity="1" stroke="none"/>
</g>
</svg>
